<svg width="25" height="26" viewBox="0 0 25 26" fill="none" xmlns="http://www.w3.org/2000/svg">
<path d="M10 20C15.5228 20 20 15.5228 20 10C20 4.47715 15.5228 0 10 0C4.47715 0 0 4.47715 0 10C0 15.5228 4.47715 20 10 20Z" fill="#002424"/>
<path d="M24.6375 24.6375C24.5212 24.7547 24.383 24.8477 24.2307 24.9111C24.0783 24.9746 23.915 25.0073 23.75 25.0073C23.5849 25.0073 23.4216 24.9746 23.2692 24.9111C23.1169 24.8477 22.9787 24.7547 22.8625 24.6375L17.0125 18.75C17.6556 18.2386 18.2385 17.6557 18.75 17.0125L24.6 22.8625C24.7196 22.9762 24.8155 23.1125 24.8822 23.2635C24.9489 23.4145 24.9851 23.5772 24.9886 23.7422C24.9921 23.9072 24.9628 24.0713 24.9026 24.225C24.8423 24.3786 24.7522 24.5189 24.6375 24.6375Z" fill="#002424"/>
</svg>
